<mxfile host="app.diagrams.net" modified="2023-01-14T23:49:25.840Z" agent="5.0 (Windows NT 10.0; Win64; x64) AppleWebKit/537.36 (KHTML, like Gecko) Chrome/109.0.0.0 Safari/537.36" etag="HovgTJptjAMyuJUorr87" version="20.8.5" type="github">
  <diagram name="Page-1" id="e3a06f82-3646-2815-327d-82caf3d4e204">
    <mxGraphModel dx="1247" dy="657" grid="1" gridSize="10" guides="1" tooltips="1" connect="1" arrows="1" fold="1" page="1" pageScale="1.5" pageWidth="1169" pageHeight="826" background="none" math="0" shadow="0">
      <root>
        <mxCell id="0" style=";html=1;" />
        <mxCell id="1" style=";html=1;" parent="0" />
        <mxCell id="6a7d8f32e03d9370-57" value="&lt;div style=&quot;&quot;&gt;&lt;span style=&quot;font-size: 18px; background-color: initial;&quot;&gt;&lt;font color=&quot;#ff8000&quot;&gt;Home Network&lt;/font&gt;&lt;/span&gt;&lt;/div&gt;" style="whiteSpace=wrap;html=1;fillColor=#FFD470;gradientColor=none;fontSize=14;strokeColor=none;verticalAlign=top;align=right;" parent="1" vertex="1">
          <mxGeometry x="560" y="320" width="720" height="430" as="geometry" />
        </mxCell>
        <mxCell id="6a7d8f32e03d9370-35" style="edgeStyle=none;rounded=0;html=1;startSize=10;endSize=10;jettySize=auto;orthogonalLoop=1;fontSize=14;endArrow=none;endFill=0;strokeWidth=2;entryX=0.059;entryY=0.678;entryDx=0;entryDy=0;entryPerimeter=0;" parent="1" source="6a7d8f32e03d9370-2" target="6a7d8f32e03d9370-13" edge="1">
          <mxGeometry relative="1" as="geometry">
            <mxPoint x="637" y="693.3204158790168" as="targetPoint" />
          </mxGeometry>
        </mxCell>
        <mxCell id="6a7d8f32e03d9370-2" value="Client" style="verticalLabelPosition=bottom;aspect=fixed;html=1;verticalAlign=top;strokeColor=none;shape=mxgraph.citrix.laptop_2;fillColor=#66B2FF;gradientColor=#0066CC;fontSize=14;" parent="1" vertex="1">
          <mxGeometry x="629.9999999999999" y="430" width="116" height="86.5" as="geometry" />
        </mxCell>
        <mxCell id="6a7d8f32e03d9370-62" value="Home IoT Architeture" style="text;strokeColor=none;fillColor=none;html=1;fontSize=24;fontStyle=1;verticalAlign=middle;align=center;" parent="1" vertex="1">
          <mxGeometry x="499" y="30" width="861" height="40" as="geometry" />
        </mxCell>
        <mxCell id="B9Zo2BwohG0ni2MZEKjd-18" style="edgeStyle=none;rounded=0;html=1;startSize=10;endSize=10;jettySize=auto;orthogonalLoop=1;fontSize=14;endArrow=none;endFill=0;strokeWidth=2;entryX=0.355;entryY=0.256;entryDx=0;entryDy=0;entryPerimeter=0;exitX=0.503;exitY=0.893;exitDx=0;exitDy=0;exitPerimeter=0;" edge="1" parent="1" source="B9Zo2BwohG0ni2MZEKjd-16" target="6a7d8f32e03d9370-13">
          <mxGeometry relative="1" as="geometry">
            <mxPoint x="756" y="441.70855441058256" as="sourcePoint" />
            <mxPoint x="903.2449999999999" y="336.24700000000007" as="targetPoint" />
          </mxGeometry>
        </mxCell>
        <mxCell id="B9Zo2BwohG0ni2MZEKjd-16" value="Internet" style="aspect=fixed;perimeter=ellipsePerimeter;html=1;align=center;shadow=0;dashed=0;spacingTop=3;image;image=img/lib/active_directory/internet_cloud.svg;labelBackgroundColor=#000000;fontSize=18;fontColor=#FF8000;" vertex="1" parent="1">
          <mxGeometry x="872.5" y="80" width="160" height="100.8" as="geometry" />
        </mxCell>
        <mxCell id="B9Zo2BwohG0ni2MZEKjd-21" value="" style="group" vertex="1" connectable="0" parent="1">
          <mxGeometry x="1110" y="423" width="84" height="100.5" as="geometry" />
        </mxCell>
        <mxCell id="B9Zo2BwohG0ni2MZEKjd-19" value="192.168.1.81" style="outlineConnect=0;dashed=0;verticalLabelPosition=bottom;verticalAlign=top;align=center;html=1;shape=mxgraph.aws3.hardware_board;fillColor=#5294CF;gradientColor=none;labelBackgroundColor=#000000;fontSize=18;fontColor=#FF8000;" vertex="1" parent="B9Zo2BwohG0ni2MZEKjd-21">
          <mxGeometry width="84" height="100.5" as="geometry" />
        </mxCell>
        <mxCell id="B9Zo2BwohG0ni2MZEKjd-20" value="" style="shape=image;html=1;verticalAlign=top;verticalLabelPosition=bottom;labelBackgroundColor=#ffffff;imageAspect=0;aspect=fixed;image=https://cdn1.iconfinder.com/data/icons/fruit-136/64/Fruit_iconfree_Filled_Outline_raspberry-healthy-organic-food-fruit_icon-128.png;fontSize=18;fontColor=#FF8000;" vertex="1" parent="B9Zo2BwohG0ni2MZEKjd-21">
          <mxGeometry x="23" y="31.5" width="38" height="38" as="geometry" />
        </mxCell>
        <mxCell id="B9Zo2BwohG0ni2MZEKjd-23" value="" style="group" vertex="1" connectable="0" parent="1">
          <mxGeometry x="872.5" y="260" width="90" height="78" as="geometry" />
        </mxCell>
        <mxCell id="6a7d8f32e03d9370-13" value="Router" style="verticalLabelPosition=bottom;aspect=fixed;html=1;verticalAlign=top;strokeColor=none;shape=mxgraph.citrix.router;fillColor=#66B2FF;gradientColor=#0066CC;fontSize=14;" parent="B9Zo2BwohG0ni2MZEKjd-23" vertex="1">
          <mxGeometry x="17.5" y="41.5" width="55" height="36.5" as="geometry" />
        </mxCell>
        <mxCell id="B9Zo2BwohG0ni2MZEKjd-2" value="&lt;b&gt;&lt;font color=&quot;#0066cc&quot;&gt;192.168.1.81&lt;/font&gt;&lt;/b&gt;" style="text;html=1;align=center;verticalAlign=middle;resizable=0;points=[];autosize=1;fillColor=#eeeeee;strokeColor=#36393d;" vertex="1" parent="B9Zo2BwohG0ni2MZEKjd-23">
          <mxGeometry width="90" height="30" as="geometry" />
        </mxCell>
        <mxCell id="B9Zo2BwohG0ni2MZEKjd-24" style="edgeStyle=none;rounded=0;html=1;startSize=10;endSize=10;jettySize=auto;orthogonalLoop=1;fontSize=14;endArrow=none;endFill=0;strokeWidth=2;entryX=0.9;entryY=0.791;entryDx=0;entryDy=0;entryPerimeter=0;" edge="1" parent="1" source="B9Zo2BwohG0ni2MZEKjd-19" target="6a7d8f32e03d9370-13">
          <mxGeometry relative="1" as="geometry">
            <mxPoint x="756" y="441.70855441058234" as="sourcePoint" />
            <mxPoint x="903.2449999999999" y="336.24699999999996" as="targetPoint" />
          </mxGeometry>
        </mxCell>
        <mxCell id="B9Zo2BwohG0ni2MZEKjd-26" value="" style="outlineConnect=0;dashed=0;verticalLabelPosition=bottom;verticalAlign=top;align=center;html=1;shape=mxgraph.aws3.mqtt_protocol;fillColor=#5294CF;gradientColor=none;labelBackgroundColor=#000000;fontSize=18;fontColor=#FF8000;" vertex="1" parent="1">
          <mxGeometry x="660" y="210" width="63" height="66" as="geometry" />
        </mxCell>
      </root>
    </mxGraphModel>
  </diagram>
</mxfile>
